# xmcd
#
# Track frame offsets: 
#        150
#        21984
#        41825
#        64995
#        86481
#        108143
#        118479
#        132767
#
# Disc length: 2058 seconds
#
# Revision: 0
# Processed by: cddbd v1.5.2PL0 Copyright (c) Steve Scherf et al.
# Submitted via: ExactAudioCopy v1.4
#
DISCID=6e080808
DTITLE=Katy Hurt - Pieces of me
DYEAR=2017
DGENRE=Country
TTITLE0=Ride Home
TTITLE1=Because I Do
TTITLE2=I Don't Wanna Love You
TTITLE3=Charlottte NC
TTITLE4=Fire
TTITLE5=Small Town
TTITLE6=Cheap
TTITLE7=Light
EXTD=
EXTT0=
EXTT1=
EXTT2=
EXTT3=
EXTT4=
EXTT5=
EXTT6=
EXTT7=
PLAYORDER=
